<svg width="40" height="40" viewBox="0 0 40 40" fill="none" xmlns="http://www.w3.org/2000/svg">
<g opacity="0.6">
<path d="M3.3335 21.0166H31.6668" stroke="black" stroke-width="2.5" stroke-miterlimit="10" stroke-linecap="round" stroke-linejoin="round"/>
<path d="M31.6668 17.1334V29.0501C31.6168 33.8001 30.3168 35.0001 25.3668 35.0001H9.63355C4.60021 35.0001 3.3335 33.7501 3.3335 28.7834V17.1334C3.3335 12.6334 4.3835 11.1834 8.3335 10.9501C8.7335 10.9334 9.16688 10.9167 9.63355 10.9167H25.3668C30.4001 10.9167 31.6668 12.1667 31.6668 17.1334Z" stroke="black" stroke-width="2.5" stroke-linecap="round" stroke-linejoin="round"/>
<path d="M36.6668 11.2167V22.8667C36.6668 27.3667 35.6168 28.8167 31.6668 29.05V17.1333C31.6668 12.1667 30.4001 10.9167 25.3668 10.9167H9.63354C9.16688 10.9167 8.7335 10.9333 8.3335 10.95C8.3835 6.2 9.68354 5 14.6335 5H30.3668C35.4001 5 36.6668 6.25 36.6668 11.2167Z" stroke="black" stroke-width="2.5" stroke-linecap="round" stroke-linejoin="round"/>
<path d="M8.75 29.6833H11.6166" stroke="black" stroke-width="2.5" stroke-miterlimit="10" stroke-linecap="round" stroke-linejoin="round"/>
<path d="M15.1831 29.6833H20.9164" stroke="black" stroke-width="2.5" stroke-miterlimit="10" stroke-linecap="round" stroke-linejoin="round"/>
</g>
</svg>
