<svg width="162" height="135" viewBox="0 0 162 135" fill="none" xmlns="http://www.w3.org/2000/svg">
<g clip-path="url(#clip0_120_2174)">
<path d="M7.52778 128.641C9.77489 132.801 14.544 134.587 14.544 134.587C14.544 134.587 15.6699 129.628 13.4228 125.468C11.1757 121.308 6.40657 119.522 6.40657 119.522C6.40657 119.522 5.28068 124.481 7.52778 128.641Z" fill="black"/>
<path d="M9.0721 127.272C13.129 129.709 14.6915 134.548 14.6915 134.548C14.6915 134.548 9.67635 135.438 5.6194 133.001C1.56246 130.564 0 125.725 0 125.725C0 125.725 5.01515 124.836 9.0721 127.272Z" fill="#DB2B36"/>
<path d="M100.029 6.48096H74.7168V6.84193H100.029V6.48096Z" fill="#F2F2F2"/>
<path d="M93.159 6.75171H92.7974V10.0907H93.159V6.75171Z" fill="#F2F2F2"/>
<path d="M82.1297 6.75171H81.7681V10.0907H82.1297V6.75171Z" fill="#F2F2F2"/>
<path d="M112.866 23.8077H87.5537V24.1687H112.866V23.8077Z" fill="#F2F2F2"/>
<path d="M94.7859 20.559H94.4243V23.898H94.7859V20.559Z" fill="#F2F2F2"/>
<path d="M105.815 20.559H105.454V23.898H105.815V20.559Z" fill="#F2F2F2"/>
<path d="M146.496 31.9298H121.183V32.2908H146.496V31.9298Z" fill="#F2F2F2"/>
<path d="M128.415 28.681H128.054V32.0201H128.415V28.681Z" fill="#F2F2F2"/>
<path d="M139.445 28.681H139.083V32.0201H139.445V28.681Z" fill="#F2F2F2"/>
<path d="M143.964 115.676H118.652V116.037H143.964V115.676Z" fill="#F2F2F2"/>
<path d="M125.884 112.427H125.522V115.767H125.884V112.427Z" fill="#F2F2F2"/>
<path d="M136.913 112.427H136.552V115.767H136.913V112.427Z" fill="#F2F2F2"/>
<path d="M100.752 57.7396H75.4399V58.1006H100.752V57.7396Z" fill="#F2F2F2"/>
<path d="M82.6722 54.4908H82.3105V57.8299H82.6722V54.4908Z" fill="#F2F2F2"/>
<path d="M93.701 54.4908H93.3394V57.8299H93.701V54.4908Z" fill="#F2F2F2"/>
<path d="M108.708 101.237H83.3955V101.598H108.708V101.237Z" fill="#F2F2F2"/>
<path d="M90.6277 97.9884H90.2661V101.327H90.6277V97.9884Z" fill="#F2F2F2"/>
<path d="M101.657 97.9884H101.295V101.327H101.657V97.9884Z" fill="#F2F2F2"/>
<path d="M149.208 88.0615H123.896V88.4225H149.208V88.0615Z" fill="#F2F2F2"/>
<path d="M131.128 84.8127H130.766V88.1518H131.128V84.8127Z" fill="#F2F2F2"/>
<path d="M142.157 84.8127H141.795V88.1518H142.157V84.8127Z" fill="#F2F2F2"/>
<path d="M65.4617 126.736H22.6499V126.429H65.1536V111.517H26.249L24.359 107.586L24.6368 107.453L26.4428 111.209H65.4617V126.736Z" fill="black"/>
<path d="M28.3478 134.269C30.1338 134.269 31.5817 132.823 31.5817 131.04C31.5817 129.257 30.1338 127.812 28.3478 127.812C26.5617 127.812 25.1138 129.257 25.1138 131.04C25.1138 132.823 26.5617 134.269 28.3478 134.269Z" fill="#601217"/>
<path d="M60.2257 134.269C62.0118 134.269 63.4597 132.823 63.4597 131.04C63.4597 129.257 62.0118 127.812 60.2257 127.812C58.4396 127.812 56.9917 129.257 56.9917 131.04C56.9917 132.823 58.4396 134.269 60.2257 134.269Z" fill="#601217"/>
<path d="M97.8018 64.475C98.9075 64.475 99.8038 63.5803 99.8038 62.4765C99.8038 61.3728 98.9075 60.478 97.8018 60.478C96.6961 60.478 95.7998 61.3728 95.7998 62.4765C95.7998 63.5803 96.6961 64.475 97.8018 64.475Z" fill="#601217"/>
<path d="M70.0406 106.443H21.92L11.5078 72.469H80.7636L80.7005 72.6689L70.0406 106.443ZM22.1478 106.136H69.8147L80.3437 72.7764H11.9241L22.1478 106.136Z" fill="black"/>
<path d="M66.2845 104.676H24.0185L14.873 74.5443H75.7028L75.6474 74.7217L66.2845 104.676Z" fill="#F2F2F2"/>
<path d="M81.6264 69.4339L81.3286 69.355L83.361 61.7079H95.1836V62.0154H83.5981L81.6264 69.4339Z" fill="black"/>
<path d="M77.3028 82.7689H14.8726V83.0764H77.3028V82.7689Z" fill="black"/>
<path d="M73.7277 94.0964H18.3442V94.4039H73.7277V94.0964Z" fill="black"/>
<path d="M46.289 72.6228H45.981V106.29H46.289V72.6228Z" fill="black"/>
<path d="M60.0786 72.6131L57.8677 106.279L58.1751 106.299L60.386 72.6333L60.0786 72.6131Z" fill="black"/>
<path d="M32.1975 72.6127L31.8901 72.6327L34.0882 106.3L34.3956 106.28L32.1975 72.6127Z" fill="black"/>
<path d="M162 134.464H0V134.825H162V134.464Z" fill="black"/>
<path d="M107.652 11.1679C107.652 11.1679 110.295 18.6773 108.669 19.8326C107.042 20.9879 114.158 30.4229 114.158 30.4229L122.697 28.1123L118.021 20.2177C118.021 20.2177 117.411 12.3232 117.411 11.1679C117.411 10.0126 107.652 11.1679 107.652 11.1679Z" fill="#A0616A"/>
<path opacity="0.1" d="M107.652 11.1679C107.652 11.1679 110.295 18.6773 108.669 19.8326C107.042 20.9879 114.158 30.4229 114.158 30.4229L122.697 28.1123L118.021 20.2177C118.021 20.2177 117.411 12.3232 117.411 11.1679C117.411 10.0126 107.652 11.1679 107.652 11.1679Z" fill="black"/>
<path d="M103.216 64.6968C103.216 64.6968 102.444 74.3243 103.216 79.3306C103.988 84.3368 105.145 98.2004 105.145 98.2004C105.145 98.2004 105.145 124.387 109.388 124.772C113.632 125.157 116.718 125.542 117.104 124.002C117.49 122.462 115.175 121.691 116.332 120.921C117.49 120.151 117.875 117.455 116.332 114.375C114.789 111.294 116.332 80.1008 116.332 80.1008L123.662 99.7408C123.662 99.7408 124.433 115.915 125.205 118.226C125.977 120.536 124.433 124.772 127.134 125.157C129.834 125.542 132.92 123.232 134.464 122.462C136.007 121.691 132.149 121.691 132.92 121.306C133.692 120.921 136.007 119.766 135.235 119.381C134.464 118.996 133.692 100.511 133.692 100.511C133.692 100.511 131.57 61.0383 128.87 59.4979C126.169 57.9575 124.433 60.6108 124.433 60.6108L103.216 64.6968Z" fill="black"/>
<path d="M110.16 123.232V126.313C110.16 126.313 106.688 134.687 110.16 134.687C113.632 134.687 116.332 135.555 116.332 134.4V124.002L110.16 123.232Z" fill="black"/>
<path d="M132.92 123.226V126.307C132.92 126.307 136.392 134.682 132.92 134.682C129.448 134.682 126.748 135.549 126.748 134.394V123.997L132.92 123.226Z" fill="black"/>
<path d="M113.053 16.7519C116.888 16.7519 119.997 13.6484 119.997 9.8201C119.997 5.99177 116.888 2.88831 113.053 2.88831C109.218 2.88831 106.109 5.99177 106.109 9.8201C106.109 13.6484 109.218 16.7519 113.053 16.7519Z" fill="#A0616A"/>
<path d="M110.931 22.7208C110.931 22.7208 112.86 28.4973 115.946 27.342L119.032 26.1867L124.433 63.1563C124.433 63.1563 120.19 69.3179 114.017 65.4669C107.845 61.6159 110.931 22.7208 110.931 22.7208Z" fill="#DB2B36"/>
<path d="M116.332 21.5655L118.068 17.9071C118.068 17.9071 128.291 22.7208 129.834 24.2612C131.377 25.8016 131.377 28.1122 131.377 28.1122L128.677 37.7397C128.677 37.7397 129.448 58.9202 129.448 59.6904C129.448 60.4606 132.149 64.6967 130.22 63.1563C128.291 61.6159 127.905 60.0755 126.362 62.3861C124.819 64.6967 121.347 67.3924 121.347 67.3924L116.332 21.5655Z" fill="#601217"/>
<path d="M129.834 49.2927L128.677 60.0755C128.677 60.0755 121.733 66.2371 123.276 66.6222C124.819 67.0073 125.591 65.4669 125.591 65.4669C125.591 65.4669 128.291 68.1626 129.834 66.6222C131.377 65.0818 135.235 50.448 135.235 50.448L129.834 49.2927Z" fill="#A0616A"/>
<path d="M113.201 0.0234402C111.662 -0.031495 110.014 -0.0586695 108.716 0.769436C108.119 1.18503 107.595 1.69687 107.167 2.28401C105.902 3.87925 104.81 5.88642 105.28 7.86567L105.825 7.65335C105.825 8.18167 105.707 8.70338 105.481 9.18075C105.557 8.95782 105.815 9.31819 105.746 9.54368L105.145 11.5111C106.133 11.1497 107.361 11.8815 107.511 12.9207C107.58 10.6355 107.818 8.01507 109.675 6.677C110.611 6.00221 111.796 5.79621 112.937 5.61329C113.988 5.44453 115.091 5.28361 116.099 5.62933C117.107 5.97504 117.965 7.00374 117.736 8.04262C118.201 7.88286 118.72 8.20608 118.95 8.63978C119.18 9.07347 119.192 9.58508 119.199 10.0756C119.694 10.425 120.257 9.73117 120.459 9.1603C120.933 7.82029 121.354 6.39388 121.099 4.99589C120.844 3.5979 119.702 2.26191 118.279 2.25716C118.452 2.06771 118.544 1.8186 118.536 1.56251L117.363 1.46355C117.661 1.42145 117.935 1.27728 118.138 1.05573C117.667 1.57318 113.963 0.0506235 113.201 0.0234402Z" fill="black"/>
<path d="M112.86 20.4103C112.86 20.4103 109.72 17.3382 108.59 17.5264C107.459 17.7146 105.916 20.4103 105.916 20.4103C105.916 20.4103 96.6577 23.491 97.0435 26.5718C97.4292 29.6526 101.673 44.6715 101.673 44.6715C101.673 44.6715 105.145 62.7712 102.059 64.6967C98.9723 66.6222 116.718 71.6285 117.104 69.3179C117.489 67.0073 118.261 43.9013 117.104 40.4354C115.946 36.9695 112.86 20.4103 112.86 20.4103Z" fill="#601217"/>
<path d="M126.362 26.5719H131.132C131.132 26.5719 134.464 41.2057 134.849 42.7461C135.235 44.2865 136.007 51.6034 135.621 51.6034C135.235 51.6034 127.52 50.063 127.52 51.2183L126.362 26.5719Z" fill="#601217"/>
<path d="M126.201 62.8098H107.94C106.158 54.6265 106.009 46.72 107.94 39.1659H126.201C123.254 46.5841 123.07 54.4365 126.201 62.8098Z" fill="#F2F2F2"/>
<path d="M100.516 52.7587L105.916 55.0693C105.916 55.0693 116.332 56.6097 116.332 52.3736C116.332 48.1375 105.916 50.4481 105.916 50.4481L102.444 49.3398L100.516 52.7587Z" fill="#A0616A"/>
<path d="M101.673 24.2612L97.0438 25.4165L93.5719 45.8268C93.5719 45.8268 92.4145 51.2182 94.3434 51.6033C96.2723 51.9884 101.673 55.0692 101.673 55.0692C101.673 55.0692 102.445 49.2927 103.988 49.2927L100.13 46.2119L102.445 32.7334L101.673 24.2612Z" fill="#601217"/>
<path d="M36.2056 63.6957H10.8931V64.0567H36.2056V63.6957Z" fill="#F2F2F2"/>
<path d="M18.1253 60.4469H17.7637V63.7859H18.1253V60.4469Z" fill="#F2F2F2"/>
<path d="M29.1541 60.4469H28.7925V63.7859H29.1541V60.4469Z" fill="#F2F2F2"/>
<path d="M45.0649 10.2712H19.7524V10.6322H45.0649V10.2712Z" fill="#F2F2F2"/>
<path d="M38.1946 10.5419H37.833V13.8809H38.1946V10.5419Z" fill="#F2F2F2"/>
<path d="M27.1653 10.5419H26.8037V13.8809H27.1653V10.5419Z" fill="#F2F2F2"/>
<path d="M70.5581 45.8274H45.2456V46.1884H70.5581V45.8274Z" fill="#F2F2F2"/>
<path d="M63.6878 46.0981H63.3262V49.4372H63.6878V46.0981Z" fill="#F2F2F2"/>
<path d="M52.659 46.0981H52.2974V49.4372H52.659V46.0981Z" fill="#F2F2F2"/>
<path d="M27.5269 45.6469H2.21436V46.0078H27.5269V45.6469Z" fill="#F2F2F2"/>
<path d="M20.6565 45.9176H20.2949V49.2566H20.6565V45.9176Z" fill="#F2F2F2"/>
<path d="M9.62772 45.9176H9.26611V49.2566H9.62772V45.9176Z" fill="#F2F2F2"/>
<path d="M57.9019 27.598H32.5894V27.959H57.9019V27.598Z" fill="#F2F2F2"/>
<path d="M39.8216 24.3492H39.46V27.6883H39.8216V24.3492Z" fill="#F2F2F2"/>
<path d="M50.8509 24.3492H50.4893V27.6883H50.8509V24.3492Z" fill="#F2F2F2"/>
</g>
<defs>
<clipPath id="clip0_120_2174">
<rect width="162" height="135" fill="white"/>
</clipPath>
</defs>
</svg>
