<svg width="48" height="48" viewBox="0 0 48 48" fill="none" xmlns="http://www.w3.org/2000/svg">
<path d="M48 13.89C47.9434 10.7937 46.6847 7.84085 44.49 5.656L39.414 0.586C39.0368 0.221684 38.5316 0.0200951 38.0072 0.0246519C37.4828 0.0292088 36.9812 0.239547 36.6104 0.610363C36.2395 0.981179 36.0292 1.4828 36.0247 2.0072C36.0201 2.53159 36.2217 3.0368 36.586 3.414L40 6.828V12C40 13.0609 40.4214 14.0783 41.1716 14.8284C41.9217 15.5786 42.9391 16 44 16V36C44 36.5304 43.7893 37.0391 43.4142 37.4142C43.0391 37.7893 42.5304 38 42 38C41.4696 38 40.9609 37.7893 40.5858 37.4142C40.2107 37.0391 40 36.5304 40 36V34C40 32.4087 39.3679 30.8826 38.2426 29.7574C37.1174 28.6321 35.5913 28 34 28H32V10C31.9968 7.34881 30.9422 4.80712 29.0676 2.93244C27.1929 1.05776 24.6512 0.00317572 22 0L10 0C7.34881 0.00317572 4.80712 1.05776 2.93244 2.93244C1.05776 4.80712 0.00317572 7.34881 0 10L0 38C0.00317572 40.6512 1.05776 43.1929 2.93244 45.0676C4.80712 46.9422 7.34881 47.9968 10 48H22C24.6512 47.9968 27.1929 46.9422 29.0676 45.0676C30.9422 43.1929 31.9968 40.6512 32 38V32H34C34.5304 32 35.0391 32.2107 35.4142 32.5858C35.7893 32.9609 36 33.4696 36 34V36C36 37.5913 36.6321 39.1174 37.7574 40.2426C38.8826 41.3679 40.4087 42 42 42C43.5913 42 45.1174 41.3679 46.2426 40.2426C47.3679 39.1174 48 37.5913 48 36C48 36 48 13.926 48 13.89ZM10 4H22C23.5913 4 25.1174 4.63214 26.2426 5.75736C27.3679 6.88258 28 8.4087 28 10V18H4V10C4 8.4087 4.63214 6.88258 5.75736 5.75736C6.88258 4.63214 8.4087 4 10 4ZM28 38C28 39.5913 27.3679 41.1174 26.2426 42.2426C25.1174 43.3679 23.5913 44 22 44H10C8.4087 44 6.88258 43.3679 5.75736 42.2426C4.63214 41.1174 4 39.5913 4 38V22H28V38Z" fill="black"/>
</svg>
