<svg width="40" height="40" viewBox="0 0 40 40" fill="none" xmlns="http://www.w3.org/2000/svg">
<path d="M40 11.575C39.9529 8.99476 38.9039 6.53404 37.075 4.71333L32.845 0.488333C32.5307 0.184737 32.1097 0.0167459 31.6727 0.0205433C31.2357 0.0243406 30.8176 0.199622 30.5086 0.508636C30.1996 0.817649 30.0243 1.23567 30.0205 1.67266C30.0167 2.10966 30.1847 2.53066 30.4883 2.845L33.3333 5.69V10C33.3333 10.8841 33.6845 11.7319 34.3096 12.357C34.9348 12.9821 35.7826 13.3333 36.6667 13.3333V30C36.6667 30.442 36.4911 30.866 36.1785 31.1785C35.866 31.4911 35.442 31.6667 35 31.6667C34.558 31.6667 34.134 31.4911 33.8215 31.1785C33.5089 30.866 33.3333 30.442 33.3333 30V28.3333C33.3333 27.0072 32.8065 25.7355 31.8689 24.7978C30.9312 23.8601 29.6594 23.3333 28.3333 23.3333H26.6667V8.33333C26.664 6.12401 25.7852 4.00593 24.223 2.4437C22.6607 0.88147 20.5427 0.00264643 18.3333 0L8.33333 0C6.12401 0.00264643 4.00593 0.88147 2.4437 2.4437C0.88147 4.00593 0.00264643 6.12401 0 8.33333L0 31.6667C0.00264643 33.876 0.88147 35.9941 2.4437 37.5563C4.00593 39.1185 6.12401 39.9974 8.33333 40H18.3333C20.5427 39.9974 22.6607 39.1185 24.223 37.5563C25.7852 35.9941 26.664 33.876 26.6667 31.6667V26.6667H28.3333C28.7754 26.6667 29.1993 26.8423 29.5118 27.1548C29.8244 27.4674 30 27.8913 30 28.3333V30C30 31.3261 30.5268 32.5979 31.4645 33.5355C32.4021 34.4732 33.6739 35 35 35C36.3261 35 37.5979 34.4732 38.5355 33.5355C39.4732 32.5979 40 31.3261 40 30C40 30 40 11.605 40 11.575ZM8.33333 3.33333H18.3333C19.6594 3.33333 20.9312 3.86012 21.8689 4.7978C22.8065 5.73548 23.3333 7.00725 23.3333 8.33333V15H3.33333V8.33333C3.33333 7.00725 3.86012 5.73548 4.7978 4.7978C5.73548 3.86012 7.00725 3.33333 8.33333 3.33333ZM23.3333 31.6667C23.3333 32.9927 22.8065 34.2645 21.8689 35.2022C20.9312 36.1399 19.6594 36.6667 18.3333 36.6667H8.33333C7.00725 36.6667 5.73548 36.1399 4.7978 35.2022C3.86012 34.2645 3.33333 32.9927 3.33333 31.6667V18.3333H23.3333V31.6667Z" fill="white"/>
</svg>
