<svg width="56" height="56" viewBox="0 0 56 56" fill="none" xmlns="http://www.w3.org/2000/svg">
<path d="M0 0H56V56H0V0Z" fill="#F63D37"/>
<path d="M49.8076 10.6375L43.5254 20.7812C42.8357 21.9332 42.9407 22.8159 43.2555 23.6837L52.8063 48.0705H13.2539C9.70052 48.0705 6.95674 45.2279 6.95674 41.8317L6.92676 9.38071C7.01672 5.19156 13.134 5.11675 13.2539 9.36575V39.782C13.2389 40.7395 14.0936 41.8317 15.2031 41.8018H44.1851L36.6885 24.1924C36.4786 23.5191 36.3586 22.8458 36.3586 22.1726C36.3586 21.4245 36.6885 20.2426 37.1683 19.2701L44.0502 7.95939C44.56 6.94202 45.5945 6.25381 46.8089 6.20892C48.5332 6.13412 50.0025 7.31606 50.0625 9.12637C50.0775 9.48544 49.9875 10.2784 49.8076 10.6375Z" fill="white"/>
<path d="M27.9924 31.1344V9.36575C27.9924 5.11675 34.1996 5.08683 34.2746 9.36575V31.3738C34.2746 36.4007 30.4963 39.7371 25.8933 39.7371C21.2754 39.7371 17.4971 36.3259 17.4971 31.3738V9.36575C17.4971 5.11675 23.7643 5.11675 23.7643 9.36575V31.1344C23.7643 34.0518 27.9924 34.2314 27.9924 31.1344Z" fill="white"/>
</svg>
